<?xml version="1.0" encoding="UTF-8"?>
<svg width="3144.1" height="2108.8" fill="none" version="1.1" viewBox="0 0 3144.1 2108.8" xmlns="http://www.w3.org/2000/svg">
 <g fill="#000">
  <path d="m2017.7 839.35-381.99-298.84-67.565-480.74c88.352 2.5986 171.51 25.986 249.47 70.162 80.557 46.775 148.12 114.34 194.89 194.9 46.776 80.554 70.165 171.51 70.165 265.06-2.5995 85.753-23.389 171.51-64.966 249.47zm-202.69 207.89c-80.557 46.776-171.51 70.162-265.06 70.162-93.548 0-184.5-23.386-265.06-70.162-75.358-44.176-140.32-106.54-184.5-179.3l449.56-181.9 449.56 181.9c-44.176 72.761-106.54 135.13-184.5 179.3zm-795.17-459.95c0-93.548 23.386-184.5 70.162-265.06 46.776-80.557 114.34-148.12 194.89-194.9 75.361-44.176 161.11-67.564 249.47-70.162l-67.562 480.74-381.99 298.84c-41.58-75.361-64.966-161.11-64.966-249.47zm1042-293.64c-51.971-88.352-127.33-163.71-215.68-215.68-88.352-51.972-192.3-77.958-293.64-77.958-103.94 0-205.29 25.986-293.64 77.958-88.352 51.972-163.71 127.33-215.68 215.68-51.972 88.352-77.957 192.3-77.957 293.64 0 103.94 25.986 205.29 77.957 293.64 51.974 88.352 127.33 163.71 215.68 215.68 88.352 51.971 192.3 77.957 293.64 77.957 103.94 0 205.29-25.986 293.64-77.957 88.352-51.972 163.71-127.33 215.68-215.68 51.972-88.352 77.957-192.3 77.957-293.64 0-101.35-25.986-205.29-77.957-293.64z"/>
  <path d="m347.43 2049.5c1.5053 35.144 8.0334 39.159 41.672 42.173v11.548c-37.153-2.5099-43.178-3.0137-63.764-3.0137h-4.0152c-16.572 0-33.641 1.0045-64.267 3.0137v-11.548c35.647-3.0137 42.173-7.0288 40.667-41.168l-9.0371-242-107.94 287.18h-8.0331l-106.94-287.68-9.0374 240.99c-1.5059 37.153 6.5272 39.663 39.161 42.677v11.548c-19.581-1.5053-37.153-3.0137-48.198-3.0137-14.56 0-30.124 1.5084-47.696 3.0137v-11.548c34.14-3.0137 40.667-7.0288 42.173-42.173l8.5351-231.45c1.5062-34.143-5.0207-38.158-36.651-40.668v-11.548c21.589 1.5053 35.647 2.5099 49.202 2.5099 13.054 0 25.103-0.5008 40.667-1.5053l90.874 249.02 94.388-249.02c12.552 1.0045 24.102 1.5053 37.155 1.5053 11.548 0 26.106-1.0046 48.701-2.5099v11.548c-31.129 2.5099-37.657 6.5251-36.149 40.668z"/>
  <path d="m598.76 2024.9h13.056c-3.5144 48.197-39.663 82.337-92.38 82.337-74.808 0-108.95-54.726-108.95-122.5 0-76.313 49.202-122.5 106.44-122.5 53.22 0 93.888 41.672 93.888 111.46v4.519h-151.12v6.0243c0 70.792 20.586 107.44 70.292 107.44 36.149 0 65.266-27.111 68.78-66.774zm-82.838-149.62c-35.147 0-52.72 32.634-55.73 89.87h104.93c-0.50383-61.254-17.572-89.87-49.202-89.87z"/>
  <path d="m779.32 1862.3c37.15 0 50.707 21.59 47.694 43.682-2.006 17.572-10.543 24.601-24.097 24.601-15.566 0-24.601-11.548-21.59-27.111 2.0091-10.543 1.0046-23.6-16.568-23.6-26.106 0-46.191 33.138-46.191 82.34v89.87c0 34.14 6.5281 37.654 41.672 40.164v11.047c-21.587-2.0092-43.678-3.0137-60.75-3.0137h-3.5144c-17.071 0-34.644 1.0045-55.226 3.0137v-11.047c28.616-2.5099 33.135-7.5296 33.135-38.155v-137.07c0-32.13-1.5053-36.65-35.645-38.155v-10.543c24.097-0.5038 43.678-1.0046 66.27-3.5144h11.548v44.683c10.543-29.624 31.63-47.196 63.263-47.196z"/>
  <path d="m1021.5 2024.9h13.053c-3.0137 51.211-37.654 82.337-85.855 82.337-67.275 0-103.93-56.231-103.93-122 0-77.32 48.701-123.01 110.46-123.01 24.601 0 43.178 9.038 56.231 21.087l9.5388-22.592h8.5341v85.351h-9.5387c-9.0349-47.697-28.115-70.792-62.756-70.792-43.681 0-63.763 44.182-63.763 108.45 0 69.287 19.077 107.95 65.269 107.95 31.126 0 59.245-24.1 62.759-66.774z"/>
  <path d="m1255.6 2024.9h13.053c-3.5144 48.197-39.663 82.337-92.38 82.337-74.808 0-108.95-54.726-108.95-122.5 0-76.313 49.202-122.5 106.44-122.5 53.22 0 93.888 41.672 93.888 111.46v4.519h-151.12v6.0243c0 70.792 20.586 107.44 70.288 107.44 36.149 0 65.269-27.111 68.783-66.774zm-82.841-149.62c-35.144 0-52.716 32.634-55.727 89.87h104.93c-0.5007-61.254-17.572-89.87-49.202-89.87z"/>
  <path d="m1505.9 2052c0 32.13 1.5053 36.65 35.645 38.158v10.543c-24.097 0.5007-43.678 1.0046-66.27 3.5144h-11.548v-43.682c-12.552 30.125-34.14 46.692-66.273 46.692-52.216 0-95.393-42.677-95.393-122.5 0-76.313 49.205-122.5 99.912-122.5 27.615 0 47.193 13.557 59.244 38.659v-86.856c0-32.134-1.5084-36.653-35.648-38.158v-10.543c24.1-0.5008 43.681-1.0046 66.273-3.5144h14.058zm-98.908 39.663c33.639 0 55.73-33.138 55.73-107.95s-23.096-108.45-57.736-108.45c-36.653 0-53.721 39.162-53.721 108.45 0 69.284 18.574 107.95 55.727 107.95z"/>
  <path d="m1752.1 2024.9h13.053c-3.5144 48.197-39.66 82.337-92.38 82.337-74.808 0-108.95-54.726-108.95-122.5 0-76.313 49.202-122.5 106.44-122.5 53.22 0 93.888 41.672 93.888 111.46v4.519h-151.12v6.0243c0 70.792 20.586 107.44 70.288 107.44 36.149 0 65.269-27.111 68.783-66.774zm-82.841-149.62c-35.144 0-52.716 32.634-55.727 89.87h104.93c-0.5038-61.254-17.575-89.87-49.205-89.87z"/>
  <path d="m1915.6 1970.7c21.086 8.5341 54.222 25.105 54.222 67.278 0 48.701-41.168 69.284-82.337 69.284-28.619 0-51.211-8.5341-66.777-22.592l-9.0349 24.1h-8.5373v-85.354h9.5388c6.0273 42.677 32.634 70.792 73.302 70.792 34.143 0 50.71-17.071 50.71-39.663 0-24.1-18.076-33.135-43.178-43.178l-36.653-14.558c-33.636-13.056-53.217-35.648-53.217-68.282 0-44.182 39.159-66.273 77.317-66.273 25.102 0 44.683 8.5373 57.736 20.082l8.5373-21.587h7.5296v75.308h-9.5387c-7.0289-33.135-25.606-60.75-63.764-60.75-27.612 0-44.683 15.062-44.683 36.149 0 23.6 15.563 33.639 42.677 44.686z"/>
  <path d="m2009.2 1949.1h113.97v27.111h-113.97z"/>
  <path d="m2326.7 1926c54.222 7.0289 92.38 37.153 92.38 85.855 0 55.226-47.193 90.37-112.97 90.37h-154.13v-11.548c34.143-1.5053 40.167-6.0243 40.167-39.663v-232.96c0-33.639-6.0242-38.158-40.167-39.663v-11.548h132.04c71.797 0 114.97 32.134 114.97 80.331 0 38.659-29.624 66.774-72.298 78.322zm-53.721-144.59h-31.129v140.08h31.63c51.715 0 74.808-23.096 74.808-70.292 0-46.188-23.093-69.785-75.308-69.785zm20.586 306.26c47.697 0 71.794-25.105 71.794-75.812 0-50.206-24.097-75.812-71.794-75.812h-51.715v126.02c0 16.568 2.0092 25.606 31.63 25.606z"/>
  <path d="m2645.2 2024.9h13.056c-3.5144 48.197-39.663 82.337-92.383 82.337-74.808 0-108.95-54.726-108.95-122.5 0-76.313 49.202-122.5 106.44-122.5 53.22 0 93.888 41.672 93.888 111.46v4.519h-151.12v6.0243c0 70.792 20.586 107.44 70.288 107.44 36.149 0 65.269-27.111 68.783-66.774zm-82.841-149.62c-35.144 0-52.716 32.634-55.727 89.87h104.93c-0.5038-61.254-17.572-89.87-49.205-89.87z"/>
  <path d="m2903.6 2054.1c0 30.625 4.5189 35.645 33.135 38.155v11.047c-20.583-2.0092-38.155-3.0137-55.226-3.0137h-1.5053c-15.566 0-33.639 1.0045-51.211 3.0137v-11.047c24.601-2.5099 30.125-6.0243 30.125-38.155v-130.04c0-34.14-13.056-46.188-37.153-46.188-30.625 0-56.735 26.61-56.735 63.26v112.97c0 32.131 6.0242 35.645 30.625 38.155v11.047c-17.572-2.0092-35.645-3.0137-51.208-3.0137h-2.0091c-17.071 0-34.644 1.0045-55.226 3.0137v-11.047c28.616-2.5099 33.138-7.5296 33.138-38.155v-137.07c0-32.13-1.5084-36.65-35.651-38.155v-10.543c24.1-0.5038 43.682-1.0046 66.273-3.5144h11.548v39.159c11.047-25.102 36.149-41.672 69.284-41.672 46.191 0 71.797 28.619 71.797 76.817z"/>
  <path d="m3133.1 2028.4h11.035l-15.548 73.803h-176.74v-5.0197l133.56-218.4h-42.182c-34.644 0-53.721 9.0349-70.288 57.736h-11.047l15.062-69.788h164.19v5.5236l-134.06 217.9h54.726c32.14 0 54.735-9.5418 71.302-61.754z"/>
 </g>
</svg>
