<?xml version="1.0" encoding="UTF-8" standalone="no"?>
<svg
   width="1000"
   height="290.953"
   fill="none"
   version="1.1"
   id="svg11"
   sodipodi:docname="ProtonMail_2.svg"
   inkscape:version="1.2.2 (732a01da63, 2022-12-09)"
   xmlns:inkscape="http://www.inkscape.org/namespaces/inkscape"
   xmlns:sodipodi="http://sodipodi.sourceforge.net/DTD/sodipodi-0.dtd"
   xmlns="http://www.w3.org/2000/svg"
   xmlns:svg="http://www.w3.org/2000/svg"
   xmlns:rdf="http://www.w3.org/1999/02/22-rdf-syntax-ns#"
   xmlns:cc="http://creativecommons.org/ns#"
   xmlns:dc="http://purl.org/dc/elements/1.1/">
  <title
     id="title572">Proton Mail</title>
  <sodipodi:namedview
     id="namedview13"
     pagecolor="#ffffff"
     bordercolor="#666666"
     borderopacity="1.0"
     inkscape:showpageshadow="2"
     inkscape:pageopacity="0.0"
     inkscape:pagecheckerboard="0"
     inkscape:deskcolor="#d1d1d1"
     showgrid="false"
     inkscape:zoom="0.803"
     inkscape:cx="499.37733"
     inkscape:cy="145.70361"
     inkscape:window-width="1366"
     inkscape:window-height="705"
     inkscape:window-x="-8"
     inkscape:window-y="-8"
     inkscape:window-maximized="1"
     inkscape:current-layer="svg11" />
  <g
     clip-path="url(#a)"
     fill="#6d4aff"
     id="g4"
     transform="matrix(1.37689,0,0,1.37689,24.999111,25.000003)">
    <path
       d="m 141.942,172.268 v -68.341 c 0,-27.882 16.336,-50.087 49.013,-50.087 a 62.905,62.905 0 0 1 15.579,1.725 V 83.68 c -3.713,-0.246 -6.924,-0.246 -8.413,-0.246 -17.31,0 -24.753,7.893 -24.753,23.931 v 64.903 z m 74,-57.963 c 0,-34.296 25.991,-60.448 62.134,-60.448 36.143,0 62.125,26.135 62.125,60.448 0,34.313 -25.99,60.676 -62.129,60.676 -36.139,0 -62.13,-26.398 -62.13,-60.676 z m 93.322,0 c 0,-19.493 -13.121,-33.308 -31.188,-33.308 -18.067,0 -31.193,13.803 -31.193,33.308 0,19.738 13.121,33.308 31.193,33.308 18.072,0 31.184,-13.587 31.184,-33.308 z M 431.291,81.225 H 397.38 v 43.177 c 0,15.05 5.444,21.96 21.041,21.96 1.484,0 5.193,0 9.901,-0.246 v 25.415 c -6.435,1.725 -12.117,2.713 -18.318,2.713 -26.238,0 -44.063,-15.792 -44.063,-45.645 V 81.226 h -21.04 v -24.92 h 5.245 a 15.836,15.836 0 0 0 11.175,-4.617 15.7,15.7 0 0 0 4.62,-11.144 v -23.47 h 31.439 v 39.231 h 33.911 v 24.918 z m 9.403,33.08 c 0,-34.296 25.991,-60.448 62.134,-60.448 36.144,0 62.13,26.135 62.13,60.448 0,34.313 -25.991,60.693 -62.13,60.693 -36.138,0 -62.134,-26.415 -62.134,-60.693 z m 93.318,0 c 0,-19.493 -13.121,-33.308 -31.188,-33.308 -18.067,0 -31.192,13.802 -31.192,33.308 0,19.738 13.121,33.308 31.192,33.308 18.072,0 31.188,-13.588 31.188,-33.308 z m 47.282,57.963 v -65.874 c 0,-30.595 19.556,-52.554 54.458,-52.554 34.654,0 54.21,21.96 54.21,52.554 v 65.874 h -31.188 v -63.407 c 0,-17.02 -7.677,-27.631 -23.022,-27.631 -15.346,0 -23.023,10.61 -23.023,27.631 v 63.407 z M 0,127.405 v 44.859 h 31.59 v -42.918 c 0,-4.176 1.665,-8.18 4.627,-11.133 a 15.82,15.82 0 0 1 11.169,-4.611 H 79.777 A 57.087,57.087 0 0 0 120.062,96.96 56.711,56.711 0 0 0 136.749,56.803 56.708,56.708 0 0 0 120.06,16.64 57.082,57.082 0 0 0 79.769,0 H 0 V 56.074 H 31.59 V 29.637 h 46.05 a 27.01,27.01 0 0 1 19.063,7.87 26.83,26.83 0 0 1 7.901,18.998 26.833,26.833 0 0 1 -7.898,19.005 27.01,27.01 0 0 1 -19.067,7.872 H 44.163 A 44.266,44.266 0 0 0 27.259,86.727 44.15,44.15 0 0 0 12.928,96.27 43.987,43.987 0 0 0 3.356,110.555 43.871,43.871 0 0 0 0,127.405 Z"
       id="path2" />
  </g>
  <defs
     id="defs9">
    <clipPath
       id="a">
      <path
         fill="#ffffff"
         d="M 0,0 H 690 V 175 H 0 Z"
         id="path6" />
    </clipPath>
  </defs>
  <metadata
     id="metadata570">
    <rdf:RDF>
      <cc:Work
         rdf:about="">
        <dc:title>Proton Mail</dc:title>
        <dc:subject>
          <rdf:Bag>
            <rdf:li>Proton Mail</rdf:li>
            <rdf:li>Logo</rdf:li>
            <rdf:li>Logotipo</rdf:li>
            <rdf:li>Icon</rdf:li>
            <rdf:li>Ícono</rdf:li>
            <rdf:li>Isotype</rdf:li>
            <rdf:li>Isotipo</rdf:li>
            <rdf:li>SVG</rdf:li>
            <rdf:li>Vector</rdf:li>
            <rdf:li>Scalable</rdf:li>
            <rdf:li>Escalable</rdf:li>
            <rdf:li>Proton AG</rdf:li>
            <rdf:li>Open source</rdf:li>
            <rdf:li>Código abierto</rdf:li>
          </rdf:Bag>
        </dc:subject>
      </cc:Work>
    </rdf:RDF>
  </metadata>
</svg>
